<svg width="335" height="166" viewBox="0 0 335 166" fill="none" xmlns="http://www.w3.org/2000/svg">
<path d="M38.1552 122.269C39.5954 120.82 41.5506 120.003 43.5908 120H231.155C231.915 119.999 232.659 120.224 233.292 120.648C233.924 121.071 234.417 121.674 234.708 122.378C234.999 123.083 235.075 123.859 234.925 124.607C234.776 125.355 234.409 126.042 233.87 126.58L196.82 163.745C196.106 164.46 195.259 165.028 194.326 165.415C193.393 165.802 192.394 166.001 191.384 166H3.82047C3.06529 165.995 2.32821 165.768 1.70124 165.345C1.07427 164.923 0.585191 164.325 0.295046 163.625C0.00490045 162.926 -0.0734548 162.156 0.0697611 161.413C0.212977 160.669 0.571419 159.984 1.10035 159.443L38.1552 122.269Z" fill="#F8F8F8"/>
<path d="M117.318 2.25058C118.779 0.826822 120.735 0.0207473 122.776 4.06553e-06H311.138C311.902 -0.00110408 312.649 0.224348 313.284 0.647771C313.92 1.07119 314.415 1.67352 314.707 2.37836C314.999 3.0832 315.075 3.85882 314.925 4.60685C314.775 5.35489 314.407 6.04165 313.865 6.58005L276.658 43.7448C275.941 44.4604 275.089 45.0278 274.153 45.4148C273.216 45.8017 272.212 46.0006 271.199 46H82.8367C82.0783 45.9953 81.3381 45.7676 80.7085 45.3453C80.0788 44.923 79.5877 44.3248 79.2963 43.6254C79.0049 42.9261 78.9262 42.1564 79.0701 41.4126C79.2139 40.6689 79.5739 39.9839 80.105 39.4432L117.318 2.25058Z" fill="#F8F8F8"/>
<path d="M138.176 62.2552C138.89 61.5396 139.738 60.9722 140.67 60.5852C141.603 60.1983 142.602 59.9994 143.611 60H331.157C331.917 60.0002 332.66 60.2263 333.291 60.6497C333.923 61.0732 334.416 61.675 334.707 62.3791C334.998 63.0832 335.074 63.8581 334.927 64.6058C334.779 65.3535 334.414 66.0405 333.877 66.5801L296.826 103.745C296.112 104.461 295.265 105.028 294.332 105.415C293.399 105.802 292.4 106.001 291.391 106H103.845C103.084 106.001 102.341 105.776 101.708 105.352C101.076 104.929 100.583 104.326 100.292 103.622C100.001 102.917 99.9254 102.141 100.075 101.393C100.224 100.645 100.591 99.9584 101.13 99.42L138.176 62.2552Z" fill="#F8F8F8"/>
</svg>
